<svg width="387" height="149.03746367491024" viewBox="0 0 370 142.49059834552142"
    class="looka-1j8o68f">
    <defs id="SvgjsDefs1343">
        <linearGradient id="SvgjsLinearGradient1348">
            <stop id="SvgjsStop1349" stop-color="#7f00ff" offset="0"></stop>
            <stop id="SvgjsStop1350" stop-color="#e100ff" offset="1"></stop>
        </linearGradient>
    </defs>
    <g id="SvgjsG1344" featurekey="HdFLvg-0"
        transform="matrix(1.5832127652327097,0,0,1.5832127652327097,-29.15802014817979,-7.914618881194059)"
        fill="url(#SvgjsLinearGradient1348)">
        <path xmlns="http://www.w3.org/2000/svg" fill="url(#SvgjsLinearGradient1348)"
            d="M40.17,17.213c-0.412-0.372-1.042-0.338-1.412,0.072l-2.969,3.289c-0.007,0.008-0.013,0.015-0.018,0.02  c-0.356,0.416-0.312,1.04,0.1,1.401c0.402,0.354,1.006,0.327,1.375-0.052c0.052-0.036,0.424-0.265,1.323-0.04  c0.757,0.189,0.847,0.712,0.85,0.931c-0.009,0.544,0.419,0.998,0.966,1.017c0.012,0,0.023,0,0.035,0c0.537,0,0.98-0.425,0.999-0.966  c0.027-0.799-0.431-2.439-2.365-2.923c-0.005-0.001-0.011-0.002-0.016-0.004l1.203-1.333C40.613,18.215,40.581,17.583,40.17,17.213z  "></path>
        <path xmlns="http://www.w3.org/2000/svg" fill="url(#SvgjsLinearGradient1348)"
            d="M58.581,22.885c0.018,0.541,0.462,0.966,0.998,0.966c0.012,0,0.023,0,0.035,0  c0.547-0.019,0.975-0.472,0.966-1.017c0.003-0.219,0.093-0.742,0.851-0.931c0.898-0.225,1.271,0.004,1.322,0.04  c0.37,0.379,0.975,0.406,1.376,0.052c0.411-0.361,0.456-0.985,0.1-1.401c-0.005-0.005-0.011-0.012-0.018-0.02l-2.969-3.289  c-0.37-0.41-1.001-0.444-1.412-0.072c-0.41,0.37-0.442,1.002-0.072,1.412l1.203,1.333c-0.005,0.001-0.011,0.002-0.016,0.004  C59.012,20.446,58.554,22.086,58.581,22.885z"></path>
        <path xmlns="http://www.w3.org/2000/svg" fill="url(#SvgjsLinearGradient1348)"
            d="M81.496,32.221c-0.612-7.661-4.079-15.888-11.89-21.043c-0.125-0.052-0.255-0.088-0.385-0.088  c-0.329,0-0.651,0.16-0.845,0.456c-0.296,0.449-0.179,1.041,0.247,1.358c8.737,5.807,10.528,15.167,10.873,19.478  c0.046,0.578,0.07,1.143,0.075,1.697c0.069,8.312-4.389,14.049-9.092,20.101c-4.735,6.095-9.622,12.382-10.25,21.56h-7.269  c0.374-3.803,1.607-11.746,3.885-17.102c1.565,1.012,3.385,1.302,5.157,0.793c1.925-0.554,3.424-1.979,3.818-3.629  c0.325-1.36-0.12-2.688-1.25-3.74c-0.071-0.066-0.152-0.122-0.24-0.165c-1.685-0.827-3.37-0.817-4.876,0.026  c-1.221,0.683-2.278,1.889-3.189,3.409c-2.087-2.779-2.973-7.236-2.897-10.521c0.049-2.19,0.505-3.59,0.95-4.054  c0.186,0.213,0.368,0.431,0.569,0.633c1.225,1.225,3.337,1.962,5.29,1.962c0.646,0,1.276-0.081,1.851-0.252  c1.605-0.478,2.667-1.591,2.99-3.132c0.112-0.542-0.235-1.074-0.776-1.188c-0.547-0.11-1.074,0.235-1.188,0.776  c-0.171,0.822-0.695,1.353-1.598,1.622c-1.621,0.484-4.026-0.081-5.15-1.206c-2.076-2.077-3.139-4.908-2.993-7.973  c0.133-2.781,1.554-3.89,1.818-4.073c0.852,0.034,1.963,0.035,3.238,0.031c0.641-0.002,1.178-0.004,1.463,0.006  c0.211,0.007,2.086,0.111,2.94,1.417c0.191,0.294,0.513,0.455,0.84,0.455c0.188,0,0.378-0.053,0.547-0.163  c0.464-0.303,0.595-0.924,0.291-1.388c-1.065-1.632-3.047-2.271-4.547-2.325c-0.298-0.01-0.866-0.009-1.541-0.007  c-1.326,0.004-3.549,0.012-4.151-0.112c-0.572-0.118-1.211-0.749-1.327-0.983c-0.15-0.453-0.338-1.417-0.007-1.93  c0.085-0.114,0.503-0.347,0.779-0.501c1.067-0.594,2.854-1.588,2.488-3.938c-0.086-0.547-0.601-0.921-1.145-0.837  c-0.548,0.085-0.923,0.597-0.838,1.145c0.121,0.775-0.243,1.154-1.111,1.667c-0.339-0.297-0.853-1.107-0.262-3.134  c0.846-2.913,3.329-2.5,3.435-2.482c0.551,0.096,1.066-0.265,1.164-0.81c0.098-0.545-0.265-1.066-0.81-1.165  c-0.856-0.153-2.238-0.066-3.471,0.716c-0.44-1.096-0.924-2.814-0.519-4.087c0.562-1.762,3.688-2.62,5.137-2.479  c1.286,0.124,4.22,1.889,5.253,3.371c0.497,0.713,0.68,1.941,0.551,3.646c-0.846-0.608-1.622-1.421-2.287-2.658  c-0.262-0.489-0.869-0.673-1.356-0.409c-0.488,0.262-0.671,0.87-0.409,1.357c1.75,3.259,4.188,4.234,6.338,5.094  c1.864,0.746,3.474,1.39,4.698,3.379c0.833,1.354,1.131,2.483,0.839,3.181c-0.217,0.516-0.74,0.76-1.001,0.854  c-2.076-1.311-4.276-1.246-4.407-1.235c-0.553,0.024-0.982,0.492-0.958,1.045c0.024,0.553,0.503,0.999,1.041,0.958  c0.134,0,3.375-0.083,4.997,2.756c1.729,3.024,1.438,4.146,1.244,4.888c-0.088,0.336-0.658,1.106-1.313,1.415  c-0.4,0.188-0.611,0.091-0.68,0.061c-0.026-0.012-0.055-0.01-0.082-0.02c-1.289-0.934-3.188-1.944-5.883-2.595  c-3.007-0.727-5.227-0.448-6.251,0.783c-0.395,0.476-0.946,1.522-0.202,3.184c0.228,0.505,0.82,0.731,1.326,0.504  c0.505-0.227,0.731-0.82,0.505-1.325c-0.129-0.287-0.312-0.81-0.086-1.082c0.293-0.353,1.515-0.773,4.236-0.115  c3.813,0.92,5.759,2.593,6.579,3.508c0.39,0.436,2.46,4.215-0.271,7.069c-1.853,1.936-3.876,1.559-6.022,1.158  c-2.182-0.405-4.896-0.912-6.419,2.216c-0.243,0.499-0.035,1.098,0.462,1.34c0.141,0.069,0.292,0.102,0.438,0.102  c0.372,0,0.729-0.207,0.902-0.563c0.82-1.685,1.893-1.562,4.248-1.123c2.333,0.436,5.236,0.976,7.839-1.744  c3.43-3.584,1.562-8.239,0.424-9.66c1.1-0.604,1.962-1.743,2.179-2.564c0.346-1.329,0.537-2.987-1.432-6.432  c-0.242-0.423-0.513-0.791-0.797-1.125c0.479-0.33,0.938-0.802,1.22-1.452c0.583-1.353,0.257-3.048-0.968-5.04  c-1.571-2.554-3.65-3.385-5.66-4.189c-0.382-0.153-0.758-0.308-1.129-0.471c0.005-0.038,0.024-0.07,0.025-0.11l0.016-0.151  c0.103-0.934,0.414-3.776-0.848-5.585c-1.322-1.897-4.706-4.027-6.705-4.22c-2.094-0.207-6.298,0.917-7.24,3.865  c-0.782,2.453,0.516,5.41,0.917,6.23c-0.292,0.461-0.545,1.002-0.733,1.646c-0.701,2.407-0.211,3.946,0.522,4.836  c-0.067,0.077-0.139,0.151-0.195,0.24c-0.871,1.354-0.369,3.163-0.194,3.685c0.19,0.57,0.908,1.406,1.831,1.908  c-0.693,0.906-1.415,2.342-1.517,4.468c-0.126,2.636,0.518,5.126,1.819,7.244c-0.032,0.022-0.07,0.032-0.101,0.06  c-1.366,1.224-1.63,4.007-1.665,5.558c-0.093,4.043,1.083,9.366,3.892,12.495c-3.102,6.713-4.16,16.896-4.31,18.479h-1.893  c-0.149-1.583-1.208-11.767-4.309-18.479c2.81-3.129,3.984-8.451,3.892-12.495c-0.036-1.55-0.299-4.334-1.666-5.558  c-0.031-0.028-0.069-0.037-0.101-0.06c1.303-2.118,1.946-4.608,1.82-7.244c-0.102-2.126-0.824-3.562-1.517-4.468  c0.922-0.502,1.64-1.338,1.83-1.908c0.175-0.522,0.676-2.332-0.194-3.685c-0.057-0.088-0.127-0.163-0.195-0.24  c0.733-0.89,1.222-2.429,0.521-4.836c-0.188-0.644-0.44-1.185-0.733-1.646c0.402-0.821,1.7-3.777,0.917-6.23  c-0.942-2.948-5.146-4.072-7.24-3.865c-1.999,0.193-5.383,2.323-6.705,4.22c-1.262,1.809-0.95,4.651-0.848,5.585l0.016,0.151  c0.001,0.04,0.02,0.072,0.025,0.11c-0.371,0.163-0.747,0.318-1.128,0.471c-2.011,0.804-4.09,1.636-5.661,4.189  c-1.226,1.991-1.551,3.687-0.968,5.04c0.281,0.649,0.742,1.122,1.22,1.452c-0.284,0.334-0.555,0.702-0.796,1.125  c-1.969,3.445-1.778,5.104-1.433,6.432c0.218,0.822,1.081,1.961,2.181,2.564c-1.138,1.421-3.007,6.076,0.422,9.66  c2.603,2.719,5.506,2.179,7.839,1.744c2.355-0.438,3.428-0.562,4.249,1.123c0.173,0.356,0.53,0.563,0.901,0.563  c0.147,0,0.297-0.032,0.439-0.102c0.497-0.242,0.705-0.842,0.462-1.34c-1.523-3.128-4.237-2.622-6.418-2.216  c-2.146,0.401-4.17,0.777-6.022-1.158c-2.731-2.854-0.662-6.633-0.272-7.069c0.821-0.916,2.766-2.588,6.579-3.508  c2.722-0.658,3.944-0.238,4.237,0.115c0.226,0.272,0.043,0.794-0.085,1.082c-0.227,0.505,0,1.099,0.504,1.325  c0.505,0.227,1.099,0.001,1.325-0.504c0.745-1.662,0.194-2.708-0.202-3.184c-1.023-1.231-3.243-1.51-6.25-0.783  c-2.695,0.65-4.595,1.661-5.884,2.595c-0.027,0.01-0.056,0.007-0.083,0.02c-0.068,0.031-0.278,0.128-0.679-0.061  c-0.655-0.308-1.225-1.078-1.314-1.415c-0.193-0.742-0.484-1.863,1.245-4.888c1.623-2.839,4.864-2.757,4.997-2.756  c0.538,0.041,1.017-0.405,1.041-0.958c0.024-0.553-0.405-1.021-0.958-1.045c-0.13-0.01-2.332-0.075-4.408,1.235  c-0.261-0.094-0.784-0.338-1-0.854c-0.292-0.698,0.006-1.828,0.839-3.181c1.224-1.989,2.833-2.633,4.698-3.379  c2.15-0.86,4.587-1.835,6.338-5.094c0.262-0.488,0.079-1.096-0.409-1.357c-0.488-0.265-1.095-0.08-1.357,0.409  c-0.664,1.236-1.441,2.05-2.286,2.658c-0.129-1.706,0.053-2.934,0.55-3.646c1.033-1.482,3.966-3.247,5.252-3.371  c1.45-0.142,4.575,0.717,5.137,2.479c0.406,1.273-0.078,2.991-0.519,4.087c-1.231-0.782-2.614-0.869-3.471-0.716  c-0.545,0.099-0.907,0.62-0.809,1.165c0.098,0.544,0.613,0.905,1.165,0.81c0.106-0.018,2.588-0.431,3.435,2.482  c0.59,2.027,0.076,2.837-0.263,3.134c-0.867-0.513-1.231-0.892-1.111-1.667c0.085-0.547-0.29-1.06-0.837-1.145  c-0.544-0.084-1.06,0.29-1.145,0.837c-0.365,2.35,1.42,3.345,2.487,3.938c0.277,0.154,0.695,0.387,0.78,0.501  c0.33,0.514,0.142,1.477-0.007,1.93c-0.116,0.234-0.755,0.865-1.328,0.983c-0.603,0.124-2.825,0.116-4.15,0.112  c-0.676-0.002-1.244-0.003-1.542,0.007c-1.5,0.054-3.48,0.693-4.547,2.325c-0.303,0.464-0.172,1.085,0.291,1.388  c0.169,0.11,0.359,0.163,0.547,0.163c0.328,0,0.648-0.16,0.841-0.455c0.853-1.306,2.729-1.41,2.94-1.417  c0.284-0.01,0.822-0.008,1.463-0.006c1.275,0.004,2.386,0.003,3.237-0.031c0.265,0.183,1.686,1.292,1.819,4.073  c0.146,3.065-0.917,5.896-2.993,7.973c-1.125,1.125-3.528,1.69-5.15,1.206c-0.904-0.269-1.427-0.8-1.599-1.622  c-0.113-0.541-0.641-0.886-1.187-0.776c-0.542,0.114-0.889,0.645-0.776,1.188c0.323,1.542,1.384,2.654,2.99,3.132  c0.574,0.171,1.203,0.252,1.851,0.252c1.953,0,4.065-0.738,5.29-1.962c0.202-0.202,0.383-0.419,0.569-0.633  c0.444,0.464,0.9,1.864,0.951,4.054c0.075,3.285-0.812,7.742-2.898,10.521c-0.912-1.521-1.969-2.727-3.188-3.409  c-1.507-0.844-3.193-0.854-4.877-0.026c-0.087,0.043-0.168,0.099-0.241,0.165c-1.13,1.052-1.573,2.38-1.249,3.74  c0.394,1.65,1.893,3.075,3.817,3.629c1.774,0.509,3.593,0.219,5.158-0.793c2.276,5.355,3.51,13.299,3.884,17.102h-7.268  c-0.629-9.178-5.515-15.465-10.251-21.56c-5.016-6.456-9.754-12.553-9.016-21.798c0.344-4.311,2.136-13.671,10.873-19.478  c0.426-0.317,0.543-0.909,0.248-1.358c-0.194-0.295-0.516-0.456-0.845-0.456c-0.131,0-0.26,0.036-0.385,0.088  c-7.811,5.155-11.277,13.382-11.889,21.043h0c-0.196,2.448-0.041,4.688,0.381,6.771c2.877,14.229,18.157,21.207,18.91,37.502  c-0.667,0.552-1.102,1.375-1.102,2.307v0.156c0,0.89,0.396,1.682,1.011,2.232c-0.615,0.552-1.011,1.344-1.011,2.232v0.157  c0,0.889,0.396,1.681,1.011,2.232c-0.615,0.551-1.011,1.344-1.011,2.232V88.2c0,1.659,1.349,3.009,3.008,3.009h0.321  C41.553,93.504,45.257,95,49.791,95c4.534,0,8.238-1.496,9.77-3.791h0.57c1.659,0,3.009-1.35,3.009-3.009v-0.156  c0-0.889-0.396-1.682-1.011-2.232c0.614-0.552,1.011-1.344,1.011-2.232v-0.157c0-0.889-0.396-1.681-1.011-2.232  c0.614-0.551,1.011-1.343,1.011-2.232v-0.156c0-0.854-0.36-1.62-0.934-2.169C62.979,57.847,83.03,51.426,81.496,32.221z   M60.435,53.671c0.906-0.506,1.823-0.521,2.877-0.04c0.516,0.525,0.705,1.098,0.561,1.703c-0.227,0.945-1.199,1.816-2.422,2.168  c-0.786,0.225-2.23,0.394-3.728-0.692C58.52,55.354,59.423,54.237,60.435,53.671z M38.55,57.502  c-1.223-0.352-2.195-1.223-2.421-2.168c-0.145-0.605,0.043-1.178,0.56-1.703c1.054-0.48,1.971-0.466,2.876,0.04  c1.013,0.566,1.915,1.683,2.712,3.139C40.781,57.896,39.336,57.727,38.55,57.502z M61.134,88.2c0,0.555-0.448,1.003-1.003,1.003  h-1.859c-0.416,2.128-4.053,3.791-8.48,3.791s-8.064-1.663-8.48-3.791h-1.609c-0.554,0-1.002-0.448-1.002-1.003v-0.156  c0-0.555,0.448-1.003,1.002-1.003h20.429c0.555,0,1.003,0.448,1.003,1.003V88.2z M61.134,83.579c0,0.554-0.448,1.003-1.003,1.003  H39.702c-0.554,0-1.002-0.449-1.002-1.003v-0.157c0-0.554,0.448-1.002,1.002-1.002h20.429c0.555,0,1.003,0.448,1.003,1.002V83.579z   M61.134,78.957c0,0.555-0.448,1.003-1.003,1.003H39.702c-0.554,0-1.002-0.448-1.002-1.003v-0.156c0-0.555,0.448-1.003,1.002-1.003  h20.429c0.555,0,1.003,0.448,1.003,1.003V78.957z"></path>
    </g>
    <g id="SvgjsG1345" featurekey="VomJeJ-0"
        transform="matrix(4.438920478598208,0,0,4.438920478598208,117.15909228009781,4.786932443553383)"
        fill="#ffffff">
        <path
            d="M7.28 10.66 q0.68 -0.76 1.88 -0.8 q0.32 0.24 0.61 0.72 t0.35 0.88 q-0.56 0.38 -0.56 1.44 l0 5.28 q0 1.84 -0.29 3.05 t-0.88 1.92 t-1.49 0.99 t-2.12 0.28 q-2.06 0 -3.76 -0.66 q0 -0.56 0.22 -1.22 t0.54 -1.04 q1.34 0.6 2.72 0.6 q2.02 0 2.02 -2.02 l0 -0.66 q-1.08 0.78 -2.28 0.78 q-1.78 0 -2.69 -1.41 t-0.91 -3.83 q0 -1.22 0.31 -2.19 t0.85 -1.65 t1.25 -1.04 t1.51 -0.36 q1.62 0 2.72 0.94 z M6.52 17 l0 -4.28 q-0.7 -0.68 -1.32 -0.68 q-1.36 0 -1.36 3 q0 2.64 1.18 2.64 q0.82 0 1.5 -0.68 z M19.700000000000003 16.02 l-5.22 0 q0.04 0.9 0.46 1.4 t1.38 0.5 q0.48 0 1.11 -0.14 t1.45 -0.46 q0.66 0.68 0.82 1.84 q-1.6 1.14 -3.92 1.14 q-1.26 0 -2.11 -0.4 t-1.38 -1.12 t-0.75 -1.7 t-0.22 -2.14 q0 -1.12 0.27 -2.07 t0.82 -1.65 t1.4 -1.1 t1.99 -0.4 q0.96 0 1.73 0.32 t1.31 0.88 t0.83 1.34 t0.29 1.7 q0 1.22 -0.26 2.06 z M14.46 13.86 l2.64 0 l0 -0.22 q0 -0.74 -0.33 -1.22 t-0.99 -0.48 q-0.64 0 -0.95 0.45 t-0.37 1.47 z M30.46 13.4 l0 4.1 q0 1.32 0.48 1.98 q-0.76 0.68 -1.82 0.68 q-1.04 0 -1.42 -0.48 t-0.38 -1.46 l0 -4.26 q0 -0.68 -0.18 -1 t-0.7 -0.32 q-0.3 0 -0.68 0.16 t-0.78 0.52 l0 6.68 q-0.34 0.06 -0.74 0.09 t-0.82 0.03 t-0.82 -0.03 t-0.74 -0.09 l0 -9.98 l0.14 -0.14 l1.18 0 q1.22 0 1.64 1.2 q1.4 -1.24 2.78 -1.24 q1.4 0 2.13 0.97 t0.73 2.59 z M36.4 12.32 l0 7.68 q-0.34 0.06 -0.74 0.09 t-0.82 0.03 t-0.83 -0.03 t-0.75 -0.09 l0 -6.62 q0 -1.16 -0.94 -1.16 l-0.3 0 q-0.12 -0.38 -0.12 -1.06 q0 -0.66 0.12 -1.12 q0.52 -0.04 0.96 -0.07 t0.8 -0.03 l0.44 0 q1.02 0 1.6 0.64 t0.58 1.74 z M32.9 6 q0.58 -0.32 1.5 -0.32 q0.94 0 1.46 0.32 q0.24 0.54 0.24 1.16 t-0.24 1.16 q-0.58 0.3 -1.52 0.3 t-1.44 -0.3 q-0.24 -0.54 -0.24 -1.16 t0.24 -1.16 z M38.7 16.62 l0 -4.1 q0 -1.3 -0.48 -2 q0.74 -0.66 1.8 -0.66 t1.44 0.48 t0.38 1.46 l0 4.24 q0 0.7 0.16 1.02 t0.84 0.32 q0.66 0 1.34 -0.68 l0 -6.68 q0.66 -0.12 1.54 -0.12 t1.58 0.12 l0 7.12 q0 1.08 0.56 1.46 q-0.1 0.4 -0.38 0.87 t-0.58 0.69 q-1.64 -0.06 -2.36 -1.4 q-1.58 1.42 -2.98 1.42 t-2.13 -0.97 t-0.73 -2.59 z M48.940000000000005 19.32 q0.02 -0.52 0.27 -1.14 t0.59 -0.98 q1.6 0.84 2.78 0.84 q0.56 0 0.86 -0.19 t0.3 -0.51 q0 -0.6 -0.92 -0.9 l-1.1 -0.42 q-2.5 -0.92 -2.5 -3 q0 -1.52 1.05 -2.41 t2.83 -0.89 q0.88 0 1.94 0.25 t1.74 0.59 q0.04 0.56 -0.22 1.23 t-0.64 0.95 q-1.68 -0.76 -2.8 -0.76 q-0.4 0 -0.61 0.18 t-0.21 0.46 q0 0.48 0.76 0.76 l1.24 0.44 q2.66 0.94 2.66 3.22 q0 1.5 -1.1 2.38 t-3.14 0.88 t-3.78 -0.98 z"></path>
    </g>
</svg>